<svg width="600" height="200" viewBox="0 0 600 200" fill="none" xmlns="http://www.w3.org/2000/svg">
<g clip-path="url(#clip0_1_2)">
<g filter="url(#filter0_f_1_2)">
<circle cx="299.5" cy="100.5" r="38.5" fill="#335D98" style="mix-blend-mode:luminosity"/>
</g>
<g filter="url(#filter1_f_1_2)">
<path d="M292.775 148.64C291.324 147.787 290.599 146.635 290.599 145.184C290.599 144.16 290.94 143.051 291.623 141.856L332.583 66.336H283.175C281.639 66.336 280.401 66.0373 279.463 65.44C278.609 64.7573 278.183 63.776 278.183 62.496C278.183 59.7653 279.847 58.4 283.175 58.4H337.702C339.324 58.4 340.561 58.8267 341.415 59.68C342.353 60.5333 342.823 61.6853 342.823 63.136C342.823 64.8427 342.353 66.5493 341.415 68.256L299.431 146.72C298.492 148.427 297.127 149.28 295.335 149.28C294.311 149.28 293.457 149.067 292.775 148.64Z" fill="#6FABFF"/>
<path d="M292.775 148.64C291.324 147.787 290.599 146.635 290.599 145.184C290.599 144.16 290.94 143.051 291.623 141.856L332.583 66.336H283.175C281.639 66.336 280.401 66.0373 279.463 65.44C278.609 64.7573 278.183 63.776 278.183 62.496C278.183 59.7653 279.847 58.4 283.175 58.4H337.702C339.324 58.4 340.561 58.8267 341.415 59.68C342.353 60.5333 342.823 61.6853 342.823 63.136C342.823 64.8427 342.353 66.5493 341.415 68.256L299.431 146.72C298.492 148.427 297.127 149.28 295.335 149.28C294.311 149.28 293.457 149.067 292.775 148.64Z" fill="#6FABFF"/>
<path d="M292.775 148.64C291.324 147.787 290.599 146.635 290.599 145.184C290.599 144.16 290.94 143.051 291.623 141.856L332.583 66.336H283.175C281.639 66.336 280.401 66.0373 279.463 65.44C278.609 64.7573 278.183 63.776 278.183 62.496C278.183 59.7653 279.847 58.4 283.175 58.4H337.702C339.324 58.4 340.561 58.8267 341.415 59.68C342.353 60.5333 342.823 61.6853 342.823 63.136C342.823 64.8427 342.353 66.5493 341.415 68.256L299.431 146.72C298.492 148.427 297.127 149.28 295.335 149.28C294.311 149.28 293.457 149.067 292.775 148.64Z" fill="#6FABFF"/>
</g>
<g filter="url(#filter2_di_1_2)">
<path d="M123.565 149.28C122.114 149.28 120.962 148.853 120.109 148C119.341 147.061 118.957 145.781 118.957 144.16V89.12C118.957 87.4987 119.341 86.2613 120.109 85.408C120.962 84.4693 122.114 84 123.565 84C125.101 84 126.253 84.4693 127.021 85.408C127.874 86.3467 128.301 87.584 128.301 89.12V96.416C130.605 92.576 133.549 89.5467 137.133 87.328C140.802 85.1093 144.642 84 148.653 84C152.664 84 156.205 85.1093 159.277 87.328C162.349 89.4613 164.61 92.4907 166.061 96.416C169.048 92.4053 172.333 89.3333 175.917 87.2C179.586 85.0667 183.384 84 187.309 84C194.05 84 199.128 86.0907 202.541 90.272C205.954 94.368 207.661 100.469 207.661 108.576V144.16C207.661 145.781 207.234 147.061 206.381 148C205.528 148.853 204.376 149.28 202.925 149.28C199.853 149.28 198.317 147.573 198.317 144.16V108.32C198.317 102.859 197.378 98.8053 195.501 96.16C193.709 93.4293 190.594 92.064 186.157 92.064C182.402 92.064 179.032 93.216 176.045 95.52C173.058 97.7387 170.669 100.981 168.877 105.248V144.16C168.877 145.781 168.45 147.061 167.597 148C166.744 148.853 165.592 149.28 164.141 149.28C162.69 149.28 161.538 148.853 160.685 148C159.917 147.061 159.533 145.781 159.533 144.16V110.24C159.533 104.352 158.466 99.872 156.333 96.8C154.285 93.6427 151.341 92.064 147.501 92.064C143.832 92.064 140.546 93.088 137.645 95.136C134.744 97.0987 132.44 99.8293 130.733 103.328C129.112 106.827 128.301 110.795 128.301 115.232V144.16C128.301 145.696 127.874 146.933 127.021 147.872C126.253 148.811 125.101 149.28 123.565 149.28ZM267.206 59.168C268.059 59.936 268.486 60.8747 268.486 61.984C268.486 63.0933 268.017 64.1173 267.078 65.056C266.225 65.7387 265.414 66.08 264.646 66.08C263.537 66.08 262.043 65.5253 260.166 64.416C257.094 62.624 253.809 61.728 250.31 61.728C243.995 61.728 240.838 65.1413 240.838 71.968V85.28H259.014C262.342 85.28 264.006 86.6027 264.006 89.248C264.006 90.4427 263.579 91.3813 262.726 92.064C261.873 92.7467 260.635 93.088 259.014 93.088H240.838V144.16C240.838 145.781 240.411 147.061 239.558 148C238.79 148.853 237.681 149.28 236.23 149.28C234.779 149.28 233.627 148.853 232.774 148C231.921 147.061 231.494 145.781 231.494 144.16V93.088H225.35C223.729 93.088 222.449 92.7467 221.51 92.064C220.657 91.3813 220.23 90.4427 220.23 89.248C220.23 86.6027 221.937 85.28 225.35 85.28H231.494V72.48C231.494 66.7627 233.158 62.1973 236.486 58.784C239.899 55.2853 244.379 53.536 249.926 53.536C253.425 53.536 256.667 54.048 259.654 55.072C262.641 56.0107 265.158 57.376 267.206 59.168ZM388.064 149.28C381.237 149.28 375.221 147.957 370.016 145.312C364.811 142.581 360.8 138.741 357.984 133.792C355.168 128.843 353.76 123.083 353.76 116.512C353.76 110.027 355.168 104.352 357.984 99.488C360.8 94.5387 364.811 90.7413 370.016 88.096C375.221 85.3653 381.237 84 388.064 84C394.464 84 400.011 84.896 404.704 86.688C409.397 88.48 413.109 91.1253 415.84 94.624C416.523 95.5627 416.864 96.4587 416.864 97.312C416.864 98.592 416.224 99.744 414.944 100.768C414.347 101.28 413.579 101.536 412.64 101.536C411.189 101.536 409.824 100.896 408.544 99.616C404.021 94.5813 397.195 92.064 388.064 92.064C380.128 92.064 373.984 94.1973 369.632 98.464C365.365 102.645 363.232 108.661 363.232 116.512C363.232 124.277 365.408 130.336 369.76 134.688C374.112 139.04 380.213 141.216 388.064 141.216C392.416 141.216 396.427 140.576 400.096 139.296C403.765 137.931 406.795 136.011 409.184 133.536C410.635 132.085 412 131.36 413.28 131.36C414.048 131.36 414.901 131.701 415.84 132.384C417.035 133.408 417.632 134.517 417.632 135.712C417.632 136.821 417.163 137.76 416.224 138.528C412.043 142.283 407.691 145.013 403.168 146.72C398.645 148.427 393.611 149.28 388.064 149.28ZM439.506 149.28C438.055 149.28 436.903 148.853 436.05 148C435.282 147.061 434.898 145.781 434.898 144.16V55.968C434.898 54.3467 435.282 53.1093 436.05 52.256C436.903 51.3173 438.055 50.848 439.506 50.848C440.957 50.848 442.109 51.3173 442.962 52.256C443.815 53.1093 444.242 54.3467 444.242 55.968V144.16C444.242 145.696 443.815 146.933 442.962 147.872C442.194 148.811 441.042 149.28 439.506 149.28ZM471.747 70.432C469.87 70.432 468.248 69.8347 466.883 68.64C465.603 67.36 464.963 65.824 464.963 64.032C464.963 62.24 465.603 60.704 466.883 59.424C468.248 58.144 469.87 57.504 471.747 57.504C473.624 57.504 475.246 58.1867 476.611 59.552C478.062 60.832 478.787 62.3253 478.787 64.032C478.787 65.7387 478.062 67.232 476.611 68.512C475.246 69.792 473.624 70.432 471.747 70.432ZM471.747 149.28C470.296 149.28 469.144 148.853 468.291 148C467.523 147.061 467.139 145.781 467.139 144.16V89.12C467.139 87.4987 467.523 86.2613 468.291 85.408C469.144 84.4693 470.296 84 471.747 84C473.283 84 474.435 84.4693 475.203 85.408C476.056 86.2613 476.483 87.4987 476.483 89.12V144.16C476.483 145.781 476.056 147.061 475.203 148C474.435 148.853 473.283 149.28 471.747 149.28Z" fill="#EBEBEB"/>
<path d="M292.837 148.64C291.386 147.787 290.661 146.635 290.661 145.184C290.661 144.16 291.002 143.051 291.685 141.856L332.645 66.336H283.237C281.701 66.336 280.464 66.0373 279.525 65.44C278.672 64.7573 278.245 63.776 278.245 62.496C278.245 59.7653 279.909 58.4 283.237 58.4H337.765C339.386 58.4 340.624 58.8267 341.477 59.68C342.416 60.5333 342.885 61.6853 342.885 63.136C342.885 64.8427 342.416 66.5493 341.477 68.256L299.493 146.72C298.554 148.427 297.189 149.28 295.397 149.28C294.373 149.28 293.52 149.067 292.837 148.64Z" fill="#006AFF"/>
</g>
<g filter="url(#filter3_f_1_2)">
<path d="M292.897 148.768C291.873 148.171 291.361 147.317 291.361 146.208C291.361 145.355 291.617 144.501 292.128 143.648L334.113 64.416H282.913C280.353 64.416 279.073 63.4347 279.073 61.472C279.073 59.424 280.353 58.4 282.913 58.4H337.185C339.659 58.4 340.896 59.6373 340.896 62.112C340.896 63.7333 340.47 65.312 339.617 66.848L297.633 147.232C297.035 148.597 296.054 149.28 294.689 149.28C294.091 149.28 293.494 149.109 292.897 148.768Z" fill="#6FABFF"/>
</g>
</g>
<defs>
<filter id="filter0_f_1_2" x="182.7" y="-16.3" width="233.6" height="233.6" filterUnits="userSpaceOnUse" color-interpolation-filters="sRGB">
<feFlood flood-opacity="0" result="BackgroundImageFix"/>
<feBlend mode="normal" in="SourceGraphic" in2="BackgroundImageFix" result="shape"/>
<feGaussianBlur stdDeviation="39.15" result="effect1_foregroundBlur_1_2"/>
</filter>
<filter id="filter1_f_1_2" x="258.182" y="38.4" width="104.64" height="130.88" filterUnits="userSpaceOnUse" color-interpolation-filters="sRGB">
<feFlood flood-opacity="0" result="BackgroundImageFix"/>
<feBlend mode="normal" in="SourceGraphic" in2="BackgroundImageFix" result="shape"/>
<feGaussianBlur stdDeviation="10" result="effect1_foregroundBlur_1_2"/>
</filter>
<filter id="filter2_di_1_2" x="114.957" y="50.848" width="367.83" height="106.432" filterUnits="userSpaceOnUse" color-interpolation-filters="sRGB">
<feFlood flood-opacity="0" result="BackgroundImageFix"/>
<feColorMatrix in="SourceAlpha" type="matrix" values="0 0 0 0 0 0 0 0 0 0 0 0 0 0 0 0 0 0 127 0" result="hardAlpha"/>
<feOffset dy="4"/>
<feGaussianBlur stdDeviation="2"/>
<feComposite in2="hardAlpha" operator="out"/>
<feColorMatrix type="matrix" values="0 0 0 0 0 0 0 0 0 0 0 0 0 0 0 0 0 0 0.25 0"/>
<feBlend mode="normal" in2="BackgroundImageFix" result="effect1_dropShadow_1_2"/>
<feBlend mode="normal" in="SourceGraphic" in2="effect1_dropShadow_1_2" result="shape"/>
<feColorMatrix in="SourceAlpha" type="matrix" values="0 0 0 0 0 0 0 0 0 0 0 0 0 0 0 0 0 0 127 0" result="hardAlpha"/>
<feOffset dy="4"/>
<feGaussianBlur stdDeviation="9"/>
<feComposite in2="hardAlpha" operator="arithmetic" k2="-1" k3="1"/>
<feColorMatrix type="matrix" values="0 0 0 0 0 0 0 0 0 0 0 0 0 0 0 0 0 0 0.5 0"/>
<feBlend mode="normal" in2="shape" result="effect2_innerShadow_1_2"/>
</filter>
<filter id="filter3_f_1_2" x="271.073" y="50.4" width="77.824" height="106.88" filterUnits="userSpaceOnUse" color-interpolation-filters="sRGB">
<feFlood flood-opacity="0" result="BackgroundImageFix"/>
<feBlend mode="normal" in="SourceGraphic" in2="BackgroundImageFix" result="shape"/>
<feGaussianBlur stdDeviation="4" result="effect1_foregroundBlur_1_2"/>
</filter>
<clipPath id="clip0_1_2">
<rect width="600" height="200" fill="white"/>
</clipPath>
</defs>
</svg>
